<svg version="1.2" xmlns="http://www.w3.org/2000/svg" viewBox="0 0 207 45" width="207" height="45">
	<title>bowsy-logo-svg</title>
	<style>
		.s0 { fill: #a8a8a8 } 
	</style>
	<path id="Layer" fill-rule="evenodd" class="s0" d="m0 44.4v-42.8h15q7.8 0 11.9 3 4 3 4 8.7 0 3.2-1.6 5.6-1.6 2.4-4.5 3.5 3.3 0.8 5.2 3.3 1.9 2.5 1.9 6.1 0 6.2-4 9.4-3.9 3.2-11.2 3.2zm8.8-18.6v11.5h7.6q3.1 0 4.9-1.4 1.7-1.5 1.7-4.2 0-5.8-6.1-5.9zm0-6.3h6.6q6.7-0.1 6.7-5.3 0-2.9-1.7-4.2-1.7-1.3-5.4-1.3h-6.2z"/>
	<path id="Layer" class="s0" d="m117.1 32.1l5.8-30.5h8.8l-9.6 42.8h-8.9l-6.9-28.6-7 28.6h-8.9l-9.6-42.8h8.9l5.8 30.4 7-30.4h7.5z"/>
	<path id="Layer" class="s0" d="m158.7 33.2q0-2.5-1.7-3.8-1.8-1.4-6.4-2.9-4.6-1.5-7.3-2.9-7.3-4-7.3-10.6 0-3.5 1.9-6.2 2-2.7 5.7-4.3 3.7-1.5 8.2-1.5 4.6 0 8.2 1.7 3.6 1.6 5.6 4.7 2 3 2 6.8h-8.8q0-2.9-1.9-4.5-1.9-1.7-5.2-1.7-3.3 0-5.1 1.4-1.8 1.4-1.8 3.6 0 2.1 2.1 3.5 2.2 1.4 6.3 2.6 7.5 2.3 10.9 5.7 3.5 3.3 3.5 8.3 0 5.6-4.2 8.8-4.2 3.1-11.4 3.1-4.9 0-9-1.8-4.1-1.8-6.2-5-2.1-3.1-2.1-7.3h8.8q0 7.1 8.5 7.1 3.2 0 5-1.2 1.7-1.3 1.7-3.6z"/>
	<path id="Layer" class="s0" d="m188.4 20.9l8.9-19.3h9.7l-14.1 27.3v15.5h-9v-15.5l-14.1-27.3h9.7z"/>
	<path id="Layer" fill-rule="evenodd" class="s0" d="m61.4 33.5q1.6-0.6 3.1-1.7c2.3-1.6 4-4 4.8-6.8 0.8-2.7 0.6-5.7-0.5-8.3-0.8-1.9-2.1-3.6-3.7-4.8-1-0.9-2.5-0.4-3.1 0.7-0.6 1.2-0.1 2.6 0.8 3.6q1 1 1.6 2.4c0.7 1.6 0.8 3.4 0.3 5.1-0.5 1.7-1.5 3.2-3 4.2-1.4 1.1-3.1 1.6-4.9 1.5-1.8-0.1-3.5-0.8-4.8-2-1.3-1.2-2.2-2.8-2.5-4.5-0.3-1.8 0.1-3.6 0.9-5.1q0.7-1.3 1.9-2.2c1-0.8 1.6-2.2 1.1-3.4-0.5-1.3-1.9-1.9-3-1.2-1.7 1.1-3.1 2.7-4.1 4.4-1.4 2.5-1.9 5.4-1.5 8.3 0.5 2.8 1.9 5.3 4 7.3 1.5 1.3 3.3 2.3 5.2 2.8l-1.8 9.7c-9.5-2.4-16.6-11.1-16.6-21.4 0-12.2 9.9-22.1 22.1-22.1 12.2 0 22.1 9.9 22.1 22.1 0 10.3-7 19-16.6 21.4zm-4.1-16.4c-2.5 0-4.5 2.1-4.5 4.6 0 2.5 2 4.5 4.5 4.5 2.5 0 4.5-2 4.5-4.5 0-2.5-2-4.6-4.5-4.6z"/>
</svg>