<svg width="1440" height="657" viewBox="0 0 1440 657" fill="none" xmlns="http://www.w3.org/2000/svg">
<path opacity="0.0571429" d="M-66.0614 563.728C13.583 401.707 203.782 357.963 276.171 340.359C564.893 200.82 538.76 128.661 550.439 130.708C644.526 105.8 837.774 59.3436 858.071 72.7822" stroke="#6A6D9E"/>
<path opacity="0.114286" d="M-65.166 563.003C51.0154 404.678 250.316 367.538 326.386 352.454C645.579 223.415 635.997 150.854 647.157 153.276C746.49 131.657 949.443 91.9236 966.588 105.95" stroke="#6A6D9E"/>
<path opacity="0.171429" d="M-64.5633 562.213C87.0528 408.742 293.842 378.469 372.977 366.011C719.976 248.402 726.934 175.975 737.49 178.753C841.263 160.575 1052.28 127.846 1066.15 142.356" stroke="#6A6D9E"/>
<path opacity="0.228571" d="M-64.2375 561.35C121.453 413.847 334.067 390.647 415.629 380.901C787.57 275.559 810.936 203.795 820.808 206.908C928.181 192.297 1145.56 166.797 1156.07 181.682" stroke="#6A6D9E"/>
<path opacity="0.285714" d="M-64.1707 560.405C153.988 419.932 370.724 403.955 454.059 396.984C847.903 304.645 887.426 234.067 896.537 237.492C1006.65 226.545 1228.64 208.439 1235.72 223.591" stroke="#6A6D9E"/>
<path opacity="0.342857" d="M-64.3429 559.371C184.445 426.929 403.576 418.267 488.019 414.114C900.576 335.407 955.886 266.527 964.169 270.238C1076.14 263.022 1300.98 252.418 1304.58 267.725" stroke="#6A6D9E"/>
<path opacity="0.4" d="M-64.7324 558.239C212.63 434.764 432.417 433.451 517.298 432.135C945.252 367.581 1015.87 300.895 1023.26 304.863C1136.2 301.418 1362.1 298.363 1362.2 313.712" stroke="#6A6D9E"/>
<path opacity="0.457143" d="M-65.316 557.003C238.366 443.358 457.072 449.37 541.72 450.886C981.659 400.894 1066.98 336.88 1073.43 341.075C1186.44 341.406 1411.62 345.889 1408.24 361.167" stroke="#6A6D9E"/>
<path opacity="0.514286" d="M-66.0683 555.658C261.495 452.625 477.401 465.881 561.15 470.204C1009.59 435.065 1108.93 374.178 1114.37 378.568C1226.57 382.656 1449.26 394.604 1442.42 409.7" stroke="#6A6D9E"/>
<path opacity="0.571429" d="M-66.9636 554.197C281.882 462.474 493.299 482.835 575.493 489.918C1028.91 469.807 1141.46 412.477 1145.87 417.029C1256.37 424.821 1474.82 444.105 1464.58 458.909" stroke="#6A6D9E"/>
<path opacity="0.628571" d="M-67.9744 552.617C299.413 472.813 504.693 500.086 584.692 509.859C1039.53 504.832 1164.41 451.462 1167.75 456.142C1275.7 467.557 1488.21 493.99 1474.65 508.394" stroke="#6A6D9E"/>
<path opacity="0.685714" d="M-69.0727 550.913C313.995 483.546 511.547 517.481 588.731 529.855C1041.47 539.851 1177.7 490.813 1179.94 495.584C1284.5 510.515 1489.42 543.853 1472.66 557.753" stroke="#6A6D9E"/>
<path opacity="0.742857" d="M-70.2298 549.085C325.559 494.572 513.861 534.872 587.635 549.735C1034.78 574.579 1181.31 530.209 1182.43 535.035C1282.79 553.347 1478.55 593.294 1458.71 606.589" stroke="#6A6D9E"/>
<path opacity="0.8" d="M-71.4163 547.13C334.059 505.792 511.669 552.109 581.467 569.333C1019.59 608.733 1175.29 569.333 1175.29 574.177C1270.68 595.707 1455.77 641.916 1433.01 654.511" stroke="#6A6D9E"/>
</svg>
